<svg width="500" height="500" version="1.1" xmlns="http://www.w3.org/2000/svg" desc="Created with imagetracer.js version 1.2.6" ><path fill="rgb(0,0,0)" stroke="rgb(0,0,0)" stroke-width="1" opacity="0" d="M 0 0 L 500 0 L 500 500 L 0 500 L 0 0 Z M 246 160 L 240 168 L 242 175 L 247 178 L 255 177 L 259 171 Q 260 164 257 162 L 254 160 L 246 160 Z M 247 188 L 241 195 L 240 207 L 235 218 L 233 221 Q 227 228 215 230 L 205 229 L 201 227 L 189 217 L 181 218 L 177 223 L 175 237 L 169 241 L 160 240 L 147 233 Q 143 234 144 231 L 141 230 L 135 231 L 136 240 L 146 248 L 169 260 L 182 270 Q 181 272 184 271 L 186 276 L 184 283 L 174 296 L 172 304 Q 171 316 174 324 L 186 344 L 193 349 Q 195 348 194 351 L 205 357 Q 208 356 207 359 L 211 359 L 213 361 L 227 365 L 250 368 L 252 368 L 254 367 L 265 367 L 279 364 L 297 357 L 305 351 Q 307 352 306 349 L 311 346 Q 313 347 312 344 L 314 344 L 314 342 L 316 342 L 326 325 L 328 318 Q 330 305 327 298 L 318 285 Q 319 282 316 283 L 314 278 L 316 273 L 318 270 L 335 258 L 345 254 L 363 241 L 366 235 L 363 229 Q 357 227 358 231 L 346 238 L 336 241 L 329 240 L 324 235 L 324 228 L 321 220 L 318 217 L 312 217 Q 304 226 291 230 L 278 229 L 276 227 Q 272 228 273 225 L 270 224 Q 264 220 262 214 Q 263 209 260 208 L 260 199 L 257 190 L 254 188 L 247 188 Z " /><path fill="rgb(0,0,0)" stroke="rgb(0,0,0)" stroke-width="1" opacity="0" d="M 246.5 244 L 256.5 245 L 265 250 Q 263.9 252.7 266.5 252 L 278 266.5 L 279 273.5 L 274.5 281 L 261.5 287 L 245.5 288 L 232.5 285 L 222 276.5 Q 220.5 267.5 224 263.5 L 235.5 250 L 246.5 244 Z " /><path fill="rgb(201,227,237)" stroke="rgb(201,227,237)" stroke-width="1" opacity="0.4980392156862745" d="M 245.5 160 L 253.5 160 L 257 162 Q 259.6 164.3 259 170.5 L 254.5 177 L 246.5 178 L 242 174.5 L 240 167.5 L 245.5 160 Z M 247 161 Q 240 163 242 173 L 248 177 L 254 176 L 258 171 L 257 165 Q 255 160 247 161 Z " /><path fill="rgb(201,227,237)" stroke="rgb(201,227,237)" stroke-width="1" opacity="0.4980392156862745" d="M 246.5 188 L 253.5 188 L 257 190 L 260 198.5 L 260 207.5 Q 262.6 208.9 262 213.5 Q 264.3 220.3 269.5 224 L 273 225 Q 271.8 228 275.5 227 L 276.5 229 Q 267.8 225.8 263 218.5 L 259 207.5 L 258 194.5 L 254.5 190 L 247.5 189 L 245 190 Q 246 193 243 192 L 243 194.5 L 239 213.5 L 228.5 226 L 221.5 229 L 222.5 227 L 224.5 227 L 233 220.5 L 235 217.5 L 240 206.5 L 241 194.5 L 246.5 188 Z " /><path fill="rgb(201,227,237)" stroke="rgb(201,227,237)" stroke-width="1" opacity="0.4980392156862745" d="M 182.5 217 L 188.5 217 L 194.5 223 L 204.5 229 L 214.5 230 L 219.5 229 L 219.5 230 L 208.5 231 Q 195 227.5 187.5 218 L 182.5 218 L 179 220 L 177 228.5 L 177 234.5 L 171.5 241 L 162.5 242 Q 149.3 238.7 140.5 231 L 137.5 231 Q 134.8 232.3 136 237.5 L 149.5 249 L 178.5 265 L 186 272.5 L 187 278.5 L 175 296.5 L 173 303.5 L 173 315.5 Q 177.1 333.4 188.5 344 Q 200 356 218 361.5 L 216.5 362 L 210.5 359 L 207 359 Q 208.3 356 204.5 357 L 194 351 Q 195.1 348.3 192.5 349 L 186 344 L 174 323.5 Q 170.6 315.9 172 303.5 L 174 295.5 L 184 282.5 L 186 275.5 L 184 271 Q 181.3 272.1 182 269.5 L 168.5 260 L 145.5 248 L 136 239.5 L 135 231 L 140.5 230 L 144 231 Q 142.8 234 146.5 233 L 159.5 240 L 168.5 241 L 175 236.5 L 177 222.5 L 180.5 218 L 182.5 217 Z " /><path fill="rgb(201,227,237)" stroke="rgb(201,227,237)" stroke-width="1" opacity="0.4980392156862745" d="M 311.5 217 Q 318.8 215.8 321 219.5 L 324 227.5 L 324 234.5 L 328.5 240 L 335.5 241 L 345.5 238 L 358 231 Q 356.6 227.3 362.5 229 L 366 234.5 L 363 241 L 344.5 254 L 334.5 258 L 318 269.5 L 316 272.5 L 314.5 275 L 314 273.5 L 322.5 264 L 348.5 250 L 364 237.5 Q 365.5 230.5 362.5 231 L 359.5 230 L 343.5 240 L 336.5 242 L 330.5 242 L 325 238.5 L 323 235.5 L 322 223.5 L 317.5 218 L 311.5 218 Q 305 226 294.5 230 Q 289.8 232.2 281.5 231 L 278 229.5 L 281.5 229 L 282.5 230 L 290.5 230 Q 303.8 226.3 311.5 217 Z " /><path fill="rgb(201,227,237)" stroke="rgb(201,227,237)" stroke-width="1" opacity="0.4980392156862745" d="M 245.5 243 L 254.5 243 L 259.5 245 L 274 258.5 Q 280 263.5 280 274.5 Q 278.6 280.6 273.5 283 L 261.5 288 L 243.5 289 L 238 287.5 L 244.5 287 L 245.5 288 L 253.5 288 L 267.5 285 L 276 279.5 Q 279 276.5 279 270.5 Q 274.8 259.2 266.5 252 L 263.5 250 Q 258.7 243.3 246.5 244 Q 234.9 248.4 228 257.5 L 222 267.5 L 222 276.5 Q 226.9 284.1 237 286.5 L 234.5 287 L 222 278.5 L 220 270.5 Q 225.3 255.3 237.5 247 L 245.5 243 Z " /><path fill="rgb(201,227,237)" stroke="rgb(201,227,237)" stroke-width="1" opacity="0.4980392156862745" d="M 313.5 276 L 316 283 Q 318.7 281.9 318 284.5 L 327 297.5 Q 329.6 305.4 328 317.5 L 326 324.5 L 316 342 L 314 342 L 314 344 L 312 344 Q 313.1 346.7 310.5 346 L 306 349 Q 307.1 351.7 304.5 351 Q 293.8 360.8 276.5 364 L 276.5 363 Q 301.2 357.2 315 340.5 L 321 332.5 L 326 320.5 Q 328.4 313.4 327 302.5 L 325 295.5 L 315 282.5 L 313.5 276 Z " /><path fill="rgb(201,227,237)" stroke="rgb(201,227,237)" stroke-width="1" opacity="0.4980392156862745" d="M 219.5 362 L 225 363.5 L 222.5 364 L 219.5 363 L 219.5 362 Z " /><path fill="rgb(201,227,237)" stroke="rgb(201,227,237)" stroke-width="1" opacity="0.4980392156862745" d="M 226.5 364 L 231.5 364 L 237.5 366 L 264.5 366 L 274.5 364 L 274.5 365 L 251.5 368 L 249.5 368 L 247.5 367 L 236.5 367 L 226.5 365 L 226.5 364 Z " /><path fill="rgb(155,205,232)" stroke="rgb(155,205,232)" stroke-width="1" opacity="0.996078431372549" d="M 246.5 161 Q 254.8 159.7 257 164.5 L 258 170.5 L 253.5 176 L 247.5 177 L 242 172.5 Q 240.3 162.8 246.5 161 Z " /><path fill="rgb(155,205,232)" stroke="rgb(155,205,232)" stroke-width="1" opacity="0.996078431372549" d="M 247.5 189 Q 255.1 187.9 257 192.5 L 261 214.5 Q 264 222 270.5 226 L 281.5 231 L 291.5 231 Q 304.1 227.1 311.5 218 L 317.5 218 L 322 223.5 L 323 235.5 L 326.5 240 Q 329.5 243 336.5 242 L 343.5 240 L 359.5 230 L 361.5 230 L 364 231 L 364 237.5 L 358.5 243 Q 343.7 254.2 325.5 262 L 315 271.5 L 313 277.5 L 315 282.5 L 325 295.5 Q 328.6 303.4 327 316.5 Q 322.7 335.7 309.5 346 Q 296.1 358.6 275.5 364 L 270.5 364 L 264.5 366 L 237.5 366 L 231.5 364 L 225.5 364 L 208.5 358 Q 195.9 352.1 187 342.5 Q 179 334.5 175 322.5 Q 171.7 315.3 173 303.5 L 175 296.5 L 185 282.5 L 187 275.5 L 186 272.5 L 178.5 265 L 149.5 249 L 136 237.5 Q 134.8 232.3 137.5 231 L 140.5 231 L 153.5 239 L 162.5 242 L 169.5 242 L 176 236.5 L 179 220 L 182.5 218 L 187.5 218 Q 194 226 204.5 230 L 215.5 231 Q 229.4 228.4 236 218.5 L 240 210.5 L 243 192 L 245 192 Q 243.9 189.3 246.5 190 L 247.5 189 Z M 246 243 L 238 247 Q 225 255 220 271 L 222 279 L 235 287 L 244 289 L 262 288 L 274 283 Q 279 281 280 275 Q 280 263 274 259 L 260 245 L 255 243 L 246 243 Z " /></svg>