<svg viewBox="51.00 207.00 390.28 74.00" xmlns="http://www.w3.org/2000/svg" preserveAspectRatio="xMidYMid meet"><path fill="rgb(126,161,179)" stroke="rgb(126,161,179)" stroke-width="1" opacity="0.7803921568627451" d="M 218.5 207 L 222 207.5 L 222 273.5 Q 223.5 277.3 229 276 L 228.5 279 L 205 279 Q 203.2 274.1 209.5 276 Q 213.8 274.3 212 266.5 L 212 264.5 L 212 256.5 L 211 255.5 L 212 252.5 L 211 250.5 L 211 248.5 L 212 245.5 L 211 242.5 L 212 236.5 L 212 234.5 L 211 231.5 L 211 214 L 205 213 Q 203.3 208.5 208.5 210 L 218.5 207 Z " /><path fill="rgb(126,161,179)" stroke="rgb(126,161,179)" stroke-width="1" opacity="0.7803921568627451" d="M 51 211 L 80.5 211 L 81 213.5 L 73 216.5 L 72 218.5 L 72 273.5 L 74.5 276 L 86.5 276 L 93.5 274 L 98 269.5 Q 97.3 266.9 100 268 L 100 265.5 Q 103 263.3 102 258 L 105 258.5 L 105 269.5 L 103 279 L 53.5 279 L 53 276 L 57.5 276 L 61 274 L 61 217.5 L 58.5 215 L 51 214 L 51 211 Z " /><path fill="rgb(126,161,179)" stroke="rgb(126,161,179)" stroke-width="1" opacity="0.7803921568627451" d="M 248 211 L 267.5 211 L 269 212.5 L 271 217 Q 273.7 215.9 273 218.5 L 293 243.5 L 295 248 Q 297.7 246.9 297 249.5 L 305.5 260 L 307 258.5 L 307 221.5 L 306 217.5 L 303.5 215 L 297 214 L 297.5 211 L 320 211 Q 321.5 214.8 318.5 214 L 313.5 215 L 311 217.5 L 310 219.5 L 310 280 Q 304.4 281 303 276.5 L 297 267 Q 294.3 268.1 295 265.5 Q 289.3 261 287 254 Q 284.3 255.1 285 252.5 L 274 237 Q 271.3 238.1 272 235.5 L 270 232 Q 267.3 233.1 268 230.5 L 262.5 224 L 262 248.5 L 262 250.5 L 263 269.5 L 266.5 275 L 273 276 L 272.5 279 L 248 279 L 248 276 L 254.5 276 L 259 269.5 L 259 220.5 L 254.5 215 L 248 214 L 248 211 Z " /><path fill="rgb(126,161,179)" stroke="rgb(126,161,179)" stroke-width="1" opacity="0.7803921568627451" d="M 382.5 218 L 385 219.5 L 385 232 L 397.5 232 L 398 236 L 385 236 L 385 271.5 Q 386.7 275.5 393 274 Q 391.9 271.3 394.5 272 L 396.5 271 L 398 273.5 Q 394.1 281.1 380.5 279 L 376 275.5 L 375 273.5 L 375 236 L 367 236 L 367 233 Q 374.1 231.8 378 226.5 L 382.5 218 Z " /><path fill="rgb(126,161,179)" stroke="rgb(126,161,179)" stroke-width="1" opacity="0.7803921568627451" d="M 179.5 230 L 183.5 231 L 186.5 230 Q 195.5 232.4 200 239.5 Q 203.9 244 203 252 L 170.5 252 L 170 252.5 L 170 259.5 Q 172.8 261.5 172 266 Q 174.7 264.9 174 267.5 Q 177.6 273.9 187.5 274 Q 195.6 272.6 199 266.5 L 200.5 264 L 203 265.5 L 199 273 L 197 273 Q 198.1 275.7 195.5 275 L 189.5 279 L 178.5 280 L 166 275 L 166 273 Q 163.3 274.1 164 271.5 L 160 264.5 L 160 248.5 Q 162.8 239.8 169.5 235 L 172.5 233 L 179.5 230 Z M 179 234 L 172 242 Q 173 246 170 248 L 192 248 L 190 239 Q 188 232 179 234 Z " /><path fill="rgb(126,161,179)" stroke="rgb(126,161,179)" stroke-width="1" opacity="0.7803921568627451" d="M 338.5 230 L 348.5 231 Q 356.5 233.5 361 239.5 L 365 247.5 L 366 254.5 Q 363.3 256.3 365 262.5 L 361 271 Q 358.3 269.9 359 272.5 L 348.5 279 L 338.5 280 L 328.5 277 L 321 270.5 L 317 261.5 L 317 250.5 Q 319.6 249.1 319 244.5 L 324 237 L 338.5 230 Z M 339 234 L 335 236 Q 329 240 328 248 Q 325 267 335 274 L 336 274 L 337 276 L 347 276 Q 352 272 354 266 Q 353 260 355 259 L 354 245 L 352 241 L 345 234 L 339 234 Z " /><path fill="rgb(126,161,179)" stroke="rgb(126,161,179)" stroke-width="1" opacity="0.7803921568627451" d="M 148.5 231 L 151 231.5 L 151 271.5 L 152 275 L 158 276 L 157.5 279 L 141 279 L 140.5 274 Q 135.3 280.3 123.5 280 Q 116.1 278.9 113 273.5 L 112 270.5 L 112 238.5 L 111 236 L 105 235 L 105.5 232 L 122 232 L 123 242.5 L 123 246.5 L 122 250.5 L 123 253.5 L 123 255.5 L 122 261.5 L 123 264.5 L 122 266.5 L 125.5 273 L 128.5 274 L 136.5 272 L 141 267.5 L 141 237.5 L 139.5 236 L 134 235 Q 132.7 231.7 137.5 233 L 148.5 231 Z " /><path fill="rgb(126,161,179)" stroke="rgb(126,161,179)" stroke-width="1" opacity="0.7803921568627451" d="M 414.5 231 L 428.5 231 L 439 239.5 L 441 243.5 Q 439.5 249 442 250.5 L 440.5 252 L 409 252 L 410 262.5 L 414 270 Q 418.4 274.4 429.5 273 L 436 270 L 439.5 264 L 442 265.5 L 435.5 275 Q 430 280.5 418.5 280 L 410.5 278 L 404 273.5 L 399 264.5 L 399 248.5 L 403 240.5 L 408.5 235 Q 411.1 235.7 410 233 L 412.5 233 L 414.5 231 Z M 419 234 L 417 235 L 410 245 L 411 248 L 430 248 L 429 239 Q 428 233 419 234 Z " /><path fill="rgb(0,0,0)" stroke="rgb(0,0,0)" stroke-width="1" opacity="0" d="M 0 0 L 500 0 L 500 500 L 0 500 L 0 0 Z M 219 207 L 209 210 Q 203 209 205 213 L 211 214 L 211 232 L 212 235 L 212 237 L 211 243 L 212 246 L 211 249 L 211 251 L 212 253 L 211 256 L 212 257 L 212 265 L 212 267 Q 214 274 210 276 Q 203 274 205 279 L 229 279 L 229 276 Q 224 277 222 274 L 222 208 L 219 207 Z M 51 211 L 51 214 L 59 215 L 61 218 L 61 274 L 58 276 L 53 276 L 54 279 L 103 279 L 105 270 L 105 259 L 102 258 Q 103 263 100 266 L 100 268 Q 97 267 98 270 L 94 274 L 87 276 L 75 276 L 72 274 L 72 219 L 73 217 L 81 214 L 81 211 L 51 211 Z M 248 211 L 248 214 L 255 215 L 259 221 L 259 270 L 255 276 L 248 276 L 248 279 L 273 279 L 273 276 L 267 275 L 263 270 L 262 251 L 262 249 L 263 224 L 268 231 Q 267 233 270 232 L 272 236 Q 271 238 274 237 L 285 253 Q 284 255 287 254 Q 289 261 295 266 Q 294 268 297 267 L 303 277 Q 304 281 310 280 L 310 220 L 311 218 L 314 215 L 319 214 Q 321 215 320 211 L 298 211 L 297 214 L 304 215 L 306 218 L 307 222 L 307 259 L 307 261 L 297 250 Q 298 247 295 248 L 293 244 L 273 219 Q 274 216 271 217 L 269 213 L 268 211 L 248 211 Z M 383 218 L 378 227 Q 374 232 367 233 L 367 236 L 375 236 L 375 274 L 376 276 L 381 279 Q 394 281 398 274 L 397 271 L 395 272 Q 392 271 393 274 Q 387 276 385 272 L 385 236 L 398 236 L 398 232 L 385 232 L 385 220 L 383 218 Z M 180 230 L 173 233 L 170 235 Q 163 240 160 249 L 160 265 L 164 272 Q 163 274 166 273 L 166 275 L 179 280 L 190 279 L 196 275 Q 198 276 197 273 L 199 273 L 203 266 L 201 264 L 199 267 Q 196 273 188 274 Q 178 274 174 268 Q 175 265 172 266 Q 173 262 170 260 L 170 253 L 171 252 L 203 252 Q 204 244 200 240 Q 196 232 187 230 L 184 231 L 180 230 Z M 339 230 L 324 237 L 319 245 Q 320 249 317 251 L 317 262 L 321 271 L 329 277 L 339 280 L 349 279 L 359 273 Q 358 270 361 271 L 365 263 Q 363 256 366 255 L 365 248 L 361 240 Q 357 234 349 231 L 339 230 Z M 149 231 L 138 233 Q 133 232 134 235 L 140 236 L 141 238 L 141 268 L 137 272 L 129 274 L 126 273 L 122 267 L 123 265 L 122 262 L 123 256 L 123 254 L 122 251 L 123 247 L 123 243 L 122 232 L 106 232 L 105 235 L 111 236 L 112 239 L 112 271 L 113 274 Q 116 279 124 280 Q 135 280 141 274 L 141 279 L 158 279 L 158 276 L 152 275 L 151 272 L 151 232 L 149 231 Z M 415 231 L 413 233 L 410 233 Q 411 236 409 235 L 403 241 L 399 249 L 399 265 L 404 274 L 411 278 L 419 280 Q 430 281 436 275 L 442 266 L 440 264 L 436 270 L 430 273 Q 418 274 414 270 L 410 263 L 409 252 L 441 252 L 442 251 Q 440 249 441 244 L 439 240 L 429 231 L 415 231 Z " /><path fill="rgb(0,0,0)" stroke="rgb(0,0,0)" stroke-width="1" opacity="0" d="M 178.5 234 Q 188.3 232.3 190 238.5 L 192 248 L 170 247.5 Q 172.6 246.1 172 241.5 L 178.5 234 Z " /><path fill="rgb(0,0,0)" stroke="rgb(0,0,0)" stroke-width="1" opacity="0" d="M 338.5 234 L 344.5 234 L 352 240.5 L 354 244.5 L 355 258.5 Q 352.5 260 354 265.5 Q 351.8 272.3 346.5 276 L 336.5 276 L 336 274 L 334.5 274 Q 325.3 266.7 328 247.5 Q 329.4 240 334.5 236 L 338.5 234 Z " /><path fill="rgb(0,0,0)" stroke="rgb(0,0,0)" stroke-width="1" opacity="0" d="M 418.5 234 Q 427.5 232.5 429 238.5 L 430 248 L 410.5 248 L 410 244.5 L 416.5 235 L 418.5 234 Z " /></svg>